<?xml version="1.0" encoding="utf-8"?>
<!-- Generator: Adobe Illustrator 19.2.0, SVG Export Plug-In . SVG Version: 6.00 Build 0)  -->
<svg version="1.1" id="Layer_1" xmlns="http://www.w3.org/2000/svg" xmlns:xlink="http://www.w3.org/1999/xlink" x="0px" y="0px"
	 viewBox="0 0 358.6 144.3" style="enable-background:new 0 0 358.6 144.3;" xml:space="preserve">
<style type="text/css">
	.st0{clip-path:url(#SVGID_2_);fill:#CCD3DA;}
	.st1{clip-path:url(#SVGID_4_);fill:#CCD3DA;}
	.st2{clip-path:url(#SVGID_6_);fill:#CCD3DA;}
	.st3{clip-path:url(#SVGID_8_);fill:#CCD3DA;}
</style>
<g>
	<g>
		<defs>
			<rect id="SVGID_1_" width="358.6" height="144.3"/>
		</defs>
		<clipPath id="SVGID_2_">
			<use xlink:href="#SVGID_1_"  style="overflow:visible;"/>
		</clipPath>
		<path class="st0" d="M190.2,144.3c-39.8,0-72.1-32.4-72.1-72.1c0-39.8,32.4-72.1,72.1-72.1s72.1,32.4,72.1,72.1
			C262.4,111.9,230,144.3,190.2,144.3 M190.2,10.8c-33.8,0-61.4,27.5-61.4,61.4c0,33.8,27.5,61.4,61.4,61.4
			c33.8,0,61.4-27.5,61.4-61.4C251.6,38.3,224.1,10.8,190.2,10.8"/>
	</g>
	<g>
		<defs>
			<rect id="SVGID_3_" width="358.6" height="144.3"/>
		</defs>
		<clipPath id="SVGID_4_">
			<use xlink:href="#SVGID_3_"  style="overflow:visible;"/>
		</clipPath>
		<path class="st1" d="M233.4,104l-10.5,13.3c-5.1-2.5-10-5.9-14.8-10.3c-3.6,3.3-7.5,5.7-11.6,7.3c-4.1,1.6-9,2.3-14.6,2.3
			c-11.2,0-19.7-3.2-25.3-9.5c-4.4-4.9-6.6-10.5-6.6-16.9c0-5.8,1.7-11,5.2-15.6c3.4-4.6,8.6-8.6,15.4-12c-3.1-3.6-5.4-7.1-6.9-10.4
			c-1.6-3.3-2.3-6.4-2.3-9.4c0-5.5,2.2-10.1,6.6-13.9s10.6-5.7,18.7-5.7c7.8,0,13.9,2,18.3,6c4.4,4,6.6,8.8,6.6,14.6
			c0,3.7-1.1,7.1-3.3,10.4c-2.2,3.3-6.6,7-13.2,11.1l12.5,16.5c1.5-2.6,2.7-6,3.8-10.3l15.6,3.6c-1.6,5.5-2.9,9.6-4.1,12.1
			c-1.1,2.6-2.4,4.7-3.7,6.4c1.9,1.8,4.4,3.8,7.5,5.9C229.7,101.9,232,103.3,233.4,104 M179.6,73.7c-4,2-7,4.4-8.9,7.3
			c-2,2.8-3,5.7-3,8.7c0,3.7,1.2,6.8,3.7,9.1c2.4,2.4,5.7,3.5,9.8,3.5c2.7,0,5.3-0.5,7.8-1.6s5.2-2.8,8.2-5.3L179.6,73.7z M186.4,55
			l4.7-3.6c3.4-2.7,5.2-5.3,5.2-7.9c0-2.2-0.8-4.1-2.5-5.7c-1.7-1.6-3.9-2.3-6.7-2.3c-2.7,0-4.9,0.7-6.5,2.1c-1.6,1.4-2.3,3-2.3,4.8
			c0,2.1,1.3,4.7,3.9,7.7L186.4,55z"/>
	</g>
	<g>
		<defs>
			<rect id="SVGID_5_" width="358.6" height="144.3"/>
		</defs>
		<clipPath id="SVGID_6_">
			<use xlink:href="#SVGID_5_"  style="overflow:visible;"/>
		</clipPath>
		<path class="st2" d="M110.4,72.6c0-17.1,5.4-32.9,14.5-45.9V7.2H84.3v45.6h-44V7.2H0v130.4h40.3V84.8h44v52.8h40.5v-19.1
			C115.7,105.5,110.4,89.7,110.4,72.6"/>
	</g>
	<g>
		<defs>
			<rect id="SVGID_7_" width="358.6" height="144.3"/>
		</defs>
		<clipPath id="SVGID_8_">
			<use xlink:href="#SVGID_7_"  style="overflow:visible;"/>
		</clipPath>
		<path class="st3" d="M295.7,105.5V7.2h-40.3V26c9.5,13.1,15,29.3,15,46.7s-5.6,33.5-15,46.7v18.3h103.2v-32.1L295.7,105.5"/>
	</g>
</g>
</svg>
